HIERARCHY
ROOT Root
{
  OFFSET 0.0 0.0 0.0
  CHANNELS 6 Xposition Yposition Zposition Zrotation Yrotation Xrotation
  JOINT Hips
  {
    OFFSET 0.0 100.0 0.0
    CHANNELS 6 Xposition Yposition Zposition Zrotation Yrotation Xrotation
    JOINT Spine1
    {
      OFFSET 5.003913 -0.037094 -0.013727
      CHANNELS 3 Zrotation Yrotation Xrotation
      JOINT Spine2
      {
        OFFSET 7.125363 -1e-06 0.0
        CHANNELS 3 Zrotation Yrotation Xrotation
        JOINT Chest
        {
          OFFSET 7.594027 1e-06 0.0
          CHANNELS 3 Zrotation Yrotation Xrotation
          JOINT Neck1
          {
            OFFSET 26.313086 -0.460272 -0.181672
            CHANNELS 3 Zrotation Yrotation Xrotation
            JOINT Neck2
            {
              OFFSET 8.045911 0.0 0.0
              CHANNELS 3 Zrotation Yrotation Xrotation
              JOINT Head
              {
                OFFSET 6.432774 0.0 0.0
                CHANNELS 3 Zrotation Yrotation Xrotation
                JOINT HeadEnd
                {
                  OFFSET 16.169773 0.06451 0.00362
                  CHANNELS 3 Zrotation Yrotation Xrotation
                }
                JOINT Jaw
                {
                  OFFSET 0.108741 3.12938 0.002639
                  CHANNELS 3 Zrotation Yrotation Xrotation
                }
                JOINT LeftEye
                {
                  OFFSET 4.45173 8.166359 3.206392
                  CHANNELS 3 Zrotation Yrotation Xrotation
                }
                JOINT RightEye
                {
                  OFFSET 4.436895 8.135758 -3.222429
                  CHANNELS 3 Zrotation Yrotation Xrotation
                }
              }
            }
          }
          JOINT LeftShoulder
          {
            OFFSET 23.218927 5.195579 1.621656
            CHANNELS 3 Zrotation Yrotation Xrotation
            JOINT LeftArm
            {
              OFFSET 15.902118 2e-06 -2e-06
              CHANNELS 3 Zrotation Yrotation Xrotation
              JOINT LeftForeArm
              {
                OFFSET 28.739307 0.0 -1e-06
                CHANNELS 3 Zrotation Yrotation Xrotation
                JOINT LeftHand
                {
                  OFFSET 27.093981 -4e-06 0.0
                  CHANNELS 3 Zrotation Yrotation Xrotation
                  JOINT LeftHandThumb1
                  {
                    OFFSET 2.276781 3.380274 0.83384
                    CHANNELS 3 Zrotation Yrotation Xrotation
                    JOINT LeftHandThumb2
                    {
                      OFFSET 4.705309 -1e-06 -1e-06
                      CHANNELS 3 Zrotation Yrotation Xrotation
                      JOINT LeftHandThumb3
                      {
                        OFFSET 2.798515 0.0 3e-06
                        CHANNELS 3 Zrotation Yrotation Xrotation
                        JOINT LeftHandThumbEnd
                        {
                          OFFSET 3.180793 4e-06 -4e-06
                          CHANNELS 3 Zrotation Yrotation Xrotation
                        }
                      }
                    }
                  }
                  JOINT LeftHandIndex1
                  {
                    OFFSET 3.247786 2.352677 0.137192
                    CHANNELS 3 Zrotation Yrotation Xrotation
                    JOINT LeftHandIndex2
                    {
                      OFFSET 6.367095 1e-06 0.0
                      CHANNELS 3 Zrotation Yrotation Xrotation
                      JOINT LeftHandIndex3
                      {
                        OFFSET 3.662364 0.0 0.0
                        CHANNELS 3 Zrotation Yrotation Xrotation
                        JOINT LeftHandIndex4
                        {
                          OFFSET 2.329242 4e-06 -4e-06
                          CHANNELS 3 Zrotation Yrotation Xrotation
                          JOINT LeftHandIndexEnd
                          {
                            OFFSET 2.767823 1e-06 0.0
                            CHANNELS 3 Zrotation Yrotation Xrotation
                          }
                        }
                      }
                    }
                  }
                  JOINT LeftHandMiddle1
                  {
                    OFFSET 3.163612 0.945023 -0.406112
                    CHANNELS 3 Zrotation Yrotation Xrotation
                    JOINT LeftHandMiddle2
                    {
                      OFFSET 6.276789 3e-06 0.0
                      CHANNELS 3 Zrotation Yrotation Xrotation
                      JOINT LeftHandMiddle3
                      {
                        OFFSET 4.35652 -1e-06 4e-06
                        CHANNELS 3 Zrotation Yrotation Xrotation
                        JOINT LeftHandMiddle4
                        {
                          OFFSET 2.996877 0.0 8e-06
                          CHANNELS 3 Zrotation Yrotation Xrotation
                          JOINT LeftHandMiddleEnd
                          {
                            OFFSET 2.323256 3e-06 -4e-06
                            CHANNELS 3 Zrotation Yrotation Xrotation
                          }
                        }
                      }
                    }
                  }
                  JOINT LeftHandRing1
                  {
                    OFFSET 2.882606 -0.309162 0.107445
                    CHANNELS 3 Zrotation Yrotation Xrotation
                    JOINT LeftHandRing2
                    {
                      OFFSET 6.033198 0.0 4e-06
                      CHANNELS 3 Zrotation Yrotation Xrotation
                      JOINT LeftHandRing3
                      {
                        OFFSET 4.350578 3e-06 0.0
                        CHANNELS 3 Zrotation Yrotation Xrotation
                        JOINT LeftHandRing4
                        {
                          OFFSET 2.651321 2e-06 -7e-06
                          CHANNELS 3 Zrotation Yrotation Xrotation
                          JOINT LeftHandRingEnd
                          {
                            OFFSET 1.937663 1e-06 -4e-06
                            CHANNELS 3 Zrotation Yrotation Xrotation
                          }
                        }
                      }
                    }
                  }
                  JOINT LeftHandPinky1
                  {
                    OFFSET 2.865315 -1.525436 0.575687
                    CHANNELS 3 Zrotation Yrotation Xrotation
                    JOINT LeftHandPinky2
                    {
                      OFFSET 5.54936 1e-06 -8e-06
                      CHANNELS 3 Zrotation Yrotation Xrotation
                      JOINT LeftHandPinky3
                      {
                        OFFSET 3.070974 0.0 -4e-06
                        CHANNELS 3 Zrotation Yrotation Xrotation
                        JOINT LeftHandPinky4
                        {
                          OFFSET 1.549672 1e-06 0.0
                          CHANNELS 3 Zrotation Yrotation Xrotation
                          JOINT LeftHandPinkyEnd
                          {
                            OFFSET 1.952123 0.0 0.0
                            CHANNELS 3 Zrotation Yrotation Xrotation
                          }
                        }
                      }
                    }
                  }
                }
              }
            }
          }
          JOINT RightShoulder
          {
            OFFSET 23.161716 5.296122 -1.380114
            CHANNELS 3 Zrotation Yrotation Xrotation
            JOINT RightArm
            {
              OFFSET -16.027195 -2e-06 1.1e-05
              CHANNELS 3 Zrotation Yrotation Xrotation
              JOINT RightForeArm
              {
                OFFSET -28.736639 4e-06 2e-06
                CHANNELS 3 Zrotation Yrotation Xrotation
                JOINT RightHand
                {
                  OFFSET -27.133619 6e-06 0.0
                  CHANNELS 3 Zrotation Yrotation Xrotation
                  JOINT RightHandThumb1
                  {
                    OFFSET -2.274328 -3.351035 -0.83067
                    CHANNELS 3 Zrotation Yrotation Xrotation
                    JOINT RightHandThumb2
                    {
                      OFFSET -4.703594 -3e-06 2e-06
                      CHANNELS 3 Zrotation Yrotation Xrotation
                      JOINT RightHandThumb3
                      {
                        OFFSET -2.794935 -4e-06 -3e-06
                        CHANNELS 3 Zrotation Yrotation Xrotation
                        JOINT RightHandThumbEnd
                        {
                          OFFSET -3.183852 4e-06 1e-06
                          CHANNELS 3 Zrotation Yrotation Xrotation
                        }
                      }
                    }
                  }
                  JOINT RightHandIndex1
                  {
                    OFFSET -3.253496 -2.33755 -0.127667
                    CHANNELS 3 Zrotation Yrotation Xrotation
                    JOINT RightHandIndex2
                    {
                      OFFSET -6.344434 0.0 0.0
                      CHANNELS 3 Zrotation Yrotation Xrotation
                      JOINT RightHandIndex3
                      {
                        OFFSET -3.654871 0.0 -8e-06
                        CHANNELS 3 Zrotation Yrotation Xrotation
                        JOINT RightHandIndex4
                        {
                          OFFSET -2.327586 -1e-06 0.0
                          CHANNELS 3 Zrotation Yrotation Xrotation
                          JOINT RightHandIndexEnd
                          {
                            OFFSET -2.770001 3e-06 8e-06
                            CHANNELS 3 Zrotation Yrotation Xrotation
                          }
                        }
                      }
                    }
                  }
                  JOINT RightHandMiddle1
                  {
                    OFFSET -3.168223 -0.944764 0.411762
                    CHANNELS 3 Zrotation Yrotation Xrotation
                    JOINT RightHandMiddle2
                    {
                      OFFSET -6.266691 -1e-06 -4e-06
                      CHANNELS 3 Zrotation Yrotation Xrotation
                      JOINT RightHandMiddle3
                      {
                        OFFSET -4.348901 0.0 0.0
                        CHANNELS 3 Zrotation Yrotation Xrotation
                        JOINT RightHandMiddle4
                        {
                          OFFSET -3.00024 2e-06 -4e-06
                          CHANNELS 3 Zrotation Yrotation Xrotation
                          JOINT RightHandMiddleEnd
                          {
                            OFFSET -2.321477 -4e-06 -4e-06
                            CHANNELS 3 Zrotation Yrotation Xrotation
                          }
                        }
                      }
                    }
                  }
                  JOINT RightHandRing1
                  {
                    OFFSET -2.885654 0.293261 -0.119232
                    CHANNELS 3 Zrotation Yrotation Xrotation
                    JOINT RightHandRing2
                    {
                      OFFSET -6.032835 -1e-06 -4e-06
                      CHANNELS 3 Zrotation Yrotation Xrotation
                      JOINT RightHandRing3
                      {
                        OFFSET -4.33881 0.0 -4e-06
                        CHANNELS 3 Zrotation Yrotation Xrotation
                        JOINT RightHandRing4
                        {
                          OFFSET -2.654903 -4e-06 -4e-06
                          CHANNELS 3 Zrotation Yrotation Xrotation
                          JOINT RightHandRingEnd
                          {
                            OFFSET -1.935122 0.0 4e-06
                            CHANNELS 3 Zrotation Yrotation Xrotation
                          }
                        }
                      }
                    }
                  }
                  JOINT RightHandPinky1
                  {
                    OFFSET -2.866241 1.503904 -0.60527
                    CHANNELS 3 Zrotation Yrotation Xrotation
                    JOINT RightHandPinky2
                    {
                      OFFSET -5.553177 -2e-06 0.0
                      CHANNELS 3 Zrotation Yrotation Xrotation
                      JOINT RightHandPinky3
                      {
                        OFFSET -3.062664 -1e-06 -4e-06
                        CHANNELS 3 Zrotation Yrotation Xrotation
                        JOINT RightHandPinky4
                        {
                          OFFSET -1.546529 2e-06 4e-06
                          CHANNELS 3 Zrotation Yrotation Xrotation
                          JOINT RightHandPinkyEnd
                          {
                            OFFSET -1.952341 0.0 -4e-06
                            CHANNELS 3 Zrotation Yrotation Xrotation
                          }
                        }
                      }
                    }
                  }
                }
              }
            }
          }
        }
      }
    }
    JOINT LeftLeg
    {
      OFFSET -8.443107 2.567604 10.043214
      CHANNELS 3 Zrotation Yrotation Xrotation
      JOINT LeftShin
      {
        OFFSET 43.229198 1e-06 -1e-06
        CHANNELS 3 Zrotation Yrotation Xrotation
        JOINT LeftFoot
        {
          OFFSET 42.298611 1e-06 1e-06
          CHANNELS 3 Zrotation Yrotation Xrotation
          JOINT LeftToeBase
          {
            OFFSET 14.165858 1e-06 0.0
            CHANNELS 3 Zrotation Yrotation Xrotation
            JOINT LeftToeEnd
            {
              OFFSET 6.7141 -0.234461 0.0
              CHANNELS 3 Zrotation Yrotation Xrotation
            }
          }
        }
      }
    }
    JOINT RightLeg
    {
      OFFSET -8.303923 2.592729 -10.047278
      CHANNELS 3 Zrotation Yrotation Xrotation
      JOINT RightShin
      {
        OFFSET -43.369682 0.0 1e-06
        CHANNELS 3 Zrotation Yrotation Xrotation
        JOINT RightFoot
        {
          OFFSET -42.260784 4e-06 2e-06
          CHANNELS 3 Zrotation Yrotation Xrotation
          JOINT RightToeBase
          {
            OFFSET -14.222245 -2e-06 -1e-06
            CHANNELS 3 Zrotation Yrotation Xrotation
            JOINT RightToeEnd
            {
              OFFSET -6.660062 0.232574 -2e-06
              CHANNELS 3 Zrotation Yrotation Xrotation
            }
          }
        }
      }
    }
  }
}
MOTION
Frames: 4
Frame Time: 0.03333333333333333
0.0 0.0 0.0 0.0 -0.0 0.0 2.70832 99.884369 1.384786 90.87706 0.427295 90.956665 -2.357242 0.453528 0.135444 -11.703212 -0.138331 0.549732 17.429937 -0.119542 -1.900834 20.45336 -4.401715 2.184438 -2.417045 -0.680434 -0.396332 -23.933517 1.142664 -2.400952 6e-06 -0.0 0.0 0.014449 0.013594 0.016018 0.032672 0.076949 0.020517 0.060755 -0.061772 0.017161 -155.507904 -75.03437 170.992828 47.576046 -19.663359 -25.618654 46.908382 -0.145966 -0.040643 1.340444 10.701859 -62.694511 17.636623 -26.322737 52.411213 -19.46666 -14.395597 29.410395 -1e-06 -8.774822 -2e-06 15.410758 -17.564024 6.719335 -0.609776 -1.795654 -3.889328 -4.807089 -11.046809 -2.937851 4e-06 -20.976017 1e-06 -5.019969 -25.033556 -4.031881 6e-06 -1e-06 2e-06 -10.634533 -5.686971 -3.565589 10.573272 -17.922951 -3.113901 2e-06 -13.821205 3e-06 -0.501777 -31.181498 -4.027017 -11.041957 -57.930222 7.491755 -13.982714 -7.150198 -2.875043 13.772729 -8.401491 -3.218241 0.347732 -34.211555 0.771655 -0.963028 -17.733366 2.62102 -0.0 -1e-06 -0.0 -17.346416 -20.095217 -4.201785 21.757557 -1.638373 3.866429 1e-06 -6.338823 1e-06 -1.697588 -22.591742 -6.194007 -1e-06 -5e-06 -2e-06 14.926262 -83.950623 179.838364 55.617992 -28.545042 -26.68541 49.672672 -0.419347 0.44491 6.291355 12.894935 -64.289627 22.182108 -20.375898 49.933327 -16.701811 -16.743525 28.476534 -0.0 -12.690598 0.0 15.806703 -17.295019 2.601949 -0.10592 -1.513856 -4.275883 -5.039039 -5.61287 -2.953557 4e-06 -11.020524 -4e-06 -6.111296 -15.895328 -3.840471 -1e-06 -1e-06 1e-06 -10.283369 -5.680288 -4.341843 11.028292 -11.302402 -2.372632 -1.384268 -14.238579 -6.320124 -0.62544 -26.924179 -3.8276 -4.334817 -48.629955 -3.214865 -13.708523 -7.363477 -3.720941 18.141146 -14.052735 -3.242672 4e-06 -18.787266 -2e-06 -0.429713 -8.456045 2.555502 -1e-06 1e-06 -0.0 -15.923532 -20.094482 -5.473585 30.419201 -7.190824 1.735924 1e-06 -8.162926 1e-06 -1.861903 -22.861467 -6.16794 -0.0 -3e-06 -1e-06 173.615128 -3.299099 -9.639729 16.202242 -0.046651 0.059478 -77.75705 -2.105016 -6.155478 -6.637656 1.610608 2.071058 -0.999999 0.0 -0.0 -6.28135 -6.524272 -7.664761 17.34816 0.034803 -0.016768 -78.676186 -2.620096 -8.102382 -6.657499 0.751699 1.66056 -1.000002 -0.0 -0.0 
0.0 0.0 0.0 0.0 -0.0 0.0 2.744975 99.872963 1.404796 90.862457 0.346779 90.944382 -2.35059 0.466298 0.142906 -11.704851 -0.118658 0.568462 17.41049 -0.111525 -1.900519 20.259001 -4.469756 2.168173 -2.414842 -0.692017 -0.376293 -24.239939 1.145984 -2.440452 6e-06 0.0 0.0 0.01487 0.01409 0.016735 0.043465 0.072665 0.021515 0.073751 -0.056666 0.018067 -154.833557 -74.885857 170.402847 46.915535 -19.508514 -25.913603 46.75634 -0.137663 -0.019948 1.076029 10.793101 -62.342102 17.636633 -26.322731 52.41119 -19.466663 -14.395598 29.410389 0.0 -8.774823 -2e-06 15.445404 -17.530443 6.68095 -0.609776 -1.795654 -3.889327 -4.807089 -11.04681 -2.93785 4e-06 -20.976019 2e-06 -5.019969 -25.03356 -4.031879 6e-06 -2e-06 0.0 -10.634535 -5.68697 -3.565586 10.573277 -17.922951 -3.113902 3e-06 -13.821209 2e-06 -0.501775 -31.181505 -4.027017 -11.132876 -58.076225 7.553047 -13.982717 -7.150197 -2.875041 13.772733 -8.401491 -3.218242 0.347734 -34.211555 0.771655 -0.963027 -17.733368 2.62102 -1e-06 -1e-06 0.0 -17.346422 -20.095217 -4.201779 21.757561 -1.638374 3.866428 1e-06 -6.338824 1e-06 -1.697589 -22.591747 -6.194007 -1e-06 -6e-06 -4e-06 15.77771 -84.046783 179.082291 55.175125 -28.69346 -26.899336 49.716274 -0.370215 0.474579 5.858493 13.132051 -63.694111 22.182119 -20.375895 49.933319 -16.701815 -16.743528 28.47653 -2e-06 -12.690602 -3e-06 15.74193 -17.279488 2.626465 -0.105919 -1.513856 -4.275882 -5.039042 -5.612872 -2.953557 5e-06 -11.020525 -2e-06 -6.111296 -15.895334 -3.840473 0.0 -0.0 0.0 -10.283371 -5.680288 -4.341839 11.028296 -11.302406 -2.372633 -1.384267 -14.238581 -6.320121 -0.625438 -26.924189 -3.827598 -4.391602 -48.742077 -3.167897 -13.708527 -7.363474 -3.720938 18.141151 -14.052739 -3.242674 9e-06 -18.787266 -4e-06 -0.429711 -8.456043 2.555504 -1e-06 1e-06 0.0 -15.923536 -20.094482 -5.473584 30.419214 -7.190827 1.735927 3e-06 -8.162927 -0.0 -1.861899 -22.861467 -6.167941 1e-06 -3e-06 -2e-06 173.467331 -3.310092 -9.601419 16.380993 -0.049552 0.06534 -77.863403 -2.162727 -6.15411 -6.628819 1.610189 2.071407 -1.0 1e-06 0.0 -6.39094 -6.537626 -7.61571 17.436373 0.034319 -0.011266 -78.728775 -2.633446 -8.125263 -6.641231 0.755326 1.656234 -1.000003 0.0 -0.0 
0.0 0.0 0.0 0.0 -0.0 0.0 2.781131 99.858788 1.437454 90.844505 0.239288 90.941689 -2.337938 0.484786 0.1424 -11.709393 -0.105676 0.568459 17.373449 -0.108727 -1.906153 20.042934 -4.48406 2.163413 -2.414325 -0.706576 -0.356633 -24.572094 1.096401 -2.445902 6e-06 0.0 -0.0 0.015092 0.01406 0.012994 0.043949 0.068364 0.016221 0.072463 -0.052239 0.015927 -153.891525 -74.745804 169.566437 45.963741 -19.400232 -26.617817 46.382767 -0.175175 0.014336 0.750676 10.993281 -62.260937 17.636631 -26.322729 52.411194 -19.466665 -14.395596 29.410393 -1e-06 -8.774822 -4e-06 15.512982 -17.499395 6.585422 -0.609776 -1.795653 -3.889328 -4.807087 -11.046809 -2.93785 5e-06 -20.976019 -1e-06 -5.019966 -25.033556 -4.031882 5e-06 -2e-06 1e-06 -10.634534 -5.686969 -3.565588 10.573276 -17.922951 -3.113901 5e-06 -13.821208 1e-06 -0.501773 -31.181501 -4.027014 -11.201241 -58.196243 7.605149 -13.982714 -7.150197 -2.875044 13.77273 -8.401493 -3.218241 0.347738 -34.211552 0.771652 -0.963027 -17.733368 2.62102 -0.0 1e-06 0.0 -17.346416 -20.095215 -4.201785 21.757561 -1.638377 3.866431 2e-06 -6.338823 1e-06 -1.697585 -22.591747 -6.19401 0.0 -3e-06 -2e-06 18.013332 -84.106583 176.942001 54.539917 -28.990875 -27.106503 49.863884 -0.228233 0.543592 5.252736 13.506944 -63.569889 22.18211 -20.375889 49.933308 -16.701811 -16.743525 28.476524 -2e-06 -12.690599 -2e-06 15.683482 -17.279606 2.639846 -0.105919 -1.513856 -4.27588 -5.03904 -5.612871 -2.953557 5e-06 -11.020523 -3e-06 -6.111295 -15.89533 -3.84047 1e-06 -0.0 1e-06 -10.283367 -5.680288 -4.341839 11.028295 -11.302406 -2.372634 -1.384268 -14.238585 -6.320122 -0.625438 -26.924194 -3.827602 -4.446946 -48.877953 -3.123646 -13.708523 -7.363475 -3.720938 18.141148 -14.052738 -3.242675 8e-06 -18.787266 -5e-06 -0.429711 -8.456043 2.555504 -0.0 1e-06 0.0 -15.923534 -20.094482 -5.473584 30.419207 -7.190827 1.735926 3e-06 -8.162929 -2e-06 -1.8619 -22.861467 -6.167942 1e-06 -3e-06 -2e-06 173.27504 -3.33152 -9.595242 16.597794 -0.05521 0.072391 -77.989105 -2.205451 -6.123143 -6.599256 1.593119 2.068748 -0.999999 0.0 -0.0 -6.534732 -6.550035 -7.599188 17.552017 0.028364 -0.00663 -78.801559 -2.628145 -8.142796 -6.600706 0.757264 1.652312 -1.000001 -0.0 0.0 
0.0 0.0 0.0 0.0 -0.0 0.0 2.813093 99.849899 1.483817 90.828705 0.116877 90.915619 -2.323546 0.50215 0.130299 -11.711679 -0.105431 0.550265 17.320847 -0.107934 -1.903188 19.818062 -4.474575 2.18224 -2.428295 -0.711365 -0.33796 -24.879597 1.016631 -2.425162 6e-06 -0.0 -0.0 0.013561 0.013523 0.002437 0.037062 0.064973 0.003425 0.063326 -0.049709 0.007566 -152.782242 -74.607445 168.604019 44.771297 -19.342258 -27.759676 45.777336 -0.241861 0.027217 0.38718 11.422015 -62.382202 17.636627 -26.322733 52.411194 -19.46666 -14.395596 29.410385 -1e-06 -8.77482 -2e-06 15.60944 -17.451618 6.423282 -0.609777 -1.795654 -3.889326 -4.807087 -11.046809 -2.93785 5e-06 -20.976019 2e-06 -5.019969 -25.033558 -4.031878 5e-06 -1e-06 0.0 -10.634531 -5.686968 -3.565588 10.573274 -17.922951 -3.113901 4e-06 -13.821206 1e-06 -0.501775 -31.181505 -4.027013 -11.244911 -58.360825 7.607027 -13.982712 -7.150197 -2.875041 13.77273 -8.401491 -3.218241 0.347737 -34.211555 0.771654 -0.963028 -17.733366 2.621022 -0.0 1e-06 0.0 -17.346415 -20.095211 -4.20178 21.757557 -1.638376 3.866429 2e-06 -6.338823 0.0 -1.697587 -22.591745 -6.194008 0.0 -3e-06 -2e-06 20.890886 -84.093758 174.167755 53.693565 -29.454313 -27.408895 50.130592 -0.074277 0.62864 4.533232 14.022605 -63.696781 22.182119 -20.375898 49.933323 -16.701817 -16.74353 28.476532 -4e-06 -12.690603 -1e-06 15.655043 -17.262754 2.645757 -0.10592 -1.513856 -4.275882 -5.039041 -5.61287 -2.953557 5e-06 -11.020525 -2e-06 -6.111297 -15.895334 -3.840469 1e-06 0.0 -1e-06 -10.283373 -5.680288 -4.341835 11.028297 -11.302407 -2.372634 -1.384268 -14.238585 -6.320122 -0.625437 -26.924191 -3.827599 -4.49749 -49.030827 -3.084606 -13.708526 -7.363477 -3.720941 18.141151 -14.052741 -3.242671 7e-06 -18.787273 -3e-06 -0.429711 -8.456048 2.555503 0.0 1e-06 -0.0 -15.923536 -20.094482 -5.473584 30.419222 -7.19083 1.735927 3e-06 -8.162929 -0.0 -1.861903 -22.861479 -6.167941 1e-06 -5e-06 -2e-06 173.104187 -3.355566 -9.630991 16.760275 -0.06114 0.081943 -78.094551 -2.230244 -6.078626 -6.561532 1.559552 2.065109 -0.999999 1e-06 -0.0 -6.674106 -6.553452 -7.572282 17.631655 0.019809 -0.011402 -78.863678 -2.600564 -8.155585 -6.533727 0.754999 1.648677 -1.000002 0.0 -0.0 
